<svg width="35" height="40" viewBox="0 0 35 40" fill="none" xmlns="http://www.w3.org/2000/svg">
<g filter="url(#filter0_d)">
<path d="M24.7944 4.35312C24.0798 3.63854 22.9277 3.63854 22.2132 4.35312L10.0944 16.4719C9.52566 17.0406 9.52566 17.9594 10.0944 18.5281L22.2132 30.6469C22.9277 31.3615 24.0798 31.3615 24.7944 30.6469C25.509 29.9323 25.509 28.7802 24.7944 28.0656L14.2361 17.4927L24.809 6.91979C25.509 6.21979 25.509 5.05312 24.7944 4.35312Z" fill="black" fill-opacity="0.54"/>
<path d="M24.7944 4.35312C24.0798 3.63854 22.9277 3.63854 22.2132 4.35312L10.0944 16.4719C9.52566 17.0406 9.52566 17.9594 10.0944 18.5281L22.2132 30.6469C22.9277 31.3615 24.0798 31.3615 24.7944 30.6469C25.509 29.9323 25.509 28.7802 24.7944 28.0656L14.2361 17.4927L24.809 6.91979C25.509 6.21979 25.509 5.05312 24.7944 4.35312Z" stroke="black"/>
</g>
<defs>
<filter id="filter0_d" x="5.16785" y="3.31718" width="24.6643" height="36.3656" filterUnits="userSpaceOnUse" color-interpolation-filters="sRGB">
<feFlood flood-opacity="0" result="BackgroundImageFix"/>
<feColorMatrix in="SourceAlpha" type="matrix" values="0 0 0 0 0 0 0 0 0 0 0 0 0 0 0 0 0 0 127 0"/>
<feOffset dy="4"/>
<feGaussianBlur stdDeviation="2"/>
<feColorMatrix type="matrix" values="0 0 0 0 0 0 0 0 0 0 0 0 0 0 0 0 0 0 0.25 0"/>
<feBlend mode="normal" in2="BackgroundImageFix" result="effect1_dropShadow"/>
<feBlend mode="normal" in="SourceGraphic" in2="effect1_dropShadow" result="shape"/>
</filter>
</defs>
</svg>
